<?xml version="1.0" standalone="no"?>
<!DOCTYPE svg PUBLIC "-//W3C//DTD SVG 20010904//EN"
 "http://www.w3.org/TR/2001/REC-SVG-20010904/DTD/svg10.dtd">
<svg version="1.0" xmlns="http://www.w3.org/2000/svg"
 width="606.000000pt" height="606.000000pt" viewBox="0 0 606.000000 606.000000"
 preserveAspectRatio="xMidYMid meet">
<metadata>
Created by potrace 1.14, written by Peter Selinger 2001-2017
</metadata>
<g transform="translate(0.000000,606.000000) scale(0.100000,-0.100000)"
fill="#000000" stroke="none">
<path d="M0 3440 l0 -2610 2600 0 2600 0 0 2610 0 2610 -2600 0 -2600 0 0
-2610z"/>
<path d="M5520 3041 c0 -2043 -2 -2450 -14 -2460 -9 -8 -671 -12 -2457 -13
l-2444 -3 -3 -113 c-1 -65 2 -120 8 -132 9 -17 23 -20 128 -22 l117 -3 5 -133
c4 -103 8 -135 20 -142 9 -6 987 -10 2582 -10 2320 0 2568 2 2582 16 14 14 16
262 16 2584 0 2322 -2 2570 -16 2584 -12 13 -39 16 -130 16 l-114 0 0 118 c0
165 3 162 -156 162 l-124 0 0 -2449z"/>
</g>
</svg>
