<svg width="15" height="16" viewBox="0 0 15 16" fill="none" xmlns="http://www.w3.org/2000/svg">
<path d="M13.9286 9.07143H8.57143V14.4286C8.57143 14.7127 8.45855 14.9853 8.25761 15.1862C8.05668 15.3871 7.78416 15.5 7.5 15.5C7.21584 15.5 6.94332 15.3871 6.74239 15.1862C6.54145 14.9853 6.42857 14.7127 6.42857 14.4286V9.07143H1.07143C0.787268 9.07143 0.514746 8.95855 0.313814 8.75762C0.112883 8.55668 0 8.28416 0 8C0 7.71584 0.112883 7.44332 0.313814 7.24239C0.514746 7.04145 0.787268 6.92857 1.07143 6.92857H6.42857V1.57143C6.42857 1.28727 6.54145 1.01475 6.74239 0.813814C6.94332 0.612882 7.21584 0.5 7.5 0.5C7.78416 0.5 8.05668 0.612882 8.25761 0.813814C8.45855 1.01475 8.57143 1.28727 8.57143 1.57143V6.92857H13.9286C14.2127 6.92857 14.4853 7.04145 14.6862 7.24239C14.8871 7.44332 15 7.71584 15 8C15 8.28416 14.8871 8.55668 14.6862 8.75762C14.4853 8.95855 14.2127 9.07143 13.9286 9.07143Z" fill="#00ADB5"/>
</svg>
