<svg width="15" height="15" viewBox="0 0 15 15" fill="none" xmlns="http://www.w3.org/2000/svg">
<path d="M8.55263 5.65789C8.34325 5.65789 8.14244 5.74107 7.99439 5.88913C7.84633 6.03718 7.76316 6.23799 7.76316 6.44737C7.76316 6.65675 7.84633 6.85756 7.99439 7.00561C8.14244 7.15367 8.34325 7.23684 8.55263 7.23684C8.76201 7.23684 8.96282 7.15367 9.11087 7.00561C9.25893 6.85756 9.34211 6.65675 9.34211 6.44737C9.34211 6.23799 9.25893 6.03718 9.11087 5.88913C8.96282 5.74107 8.76201 5.65789 8.55263 5.65789ZM8.55263 7.76316C8.34325 7.76316 8.14244 7.84633 7.99439 7.99439C7.84633 8.14244 7.76316 8.34325 7.76316 8.55263C7.76316 8.76201 7.84633 8.96282 7.99439 9.11087C8.14244 9.25893 8.34325 9.34211 8.55263 9.34211C8.76201 9.34211 8.96282 9.25893 9.11087 9.11087C9.25893 8.96282 9.34211 8.76201 9.34211 8.55263C9.34211 8.34325 9.25893 8.14244 9.11087 7.99439C8.96282 7.84633 8.76201 7.76316 8.55263 7.76316ZM6.44737 10.1316C6.30778 10.1316 6.17391 10.187 6.07521 10.2857C5.9765 10.3844 5.92105 10.5183 5.92105 10.6579C5.92105 10.7975 5.9765 10.9314 6.07521 11.0301C6.17391 11.1288 6.30778 11.1842 6.44737 11.1842C6.58696 11.1842 6.72083 11.1288 6.81953 11.0301C6.91823 10.9314 6.97368 10.7975 6.97368 10.6579C6.97368 10.5183 6.91823 10.3844 6.81953 10.2857C6.72083 10.187 6.58696 10.1316 6.44737 10.1316ZM6.44737 5.65789C6.23799 5.65789 6.03718 5.74107 5.88913 5.88913C5.74107 6.03718 5.65789 6.23799 5.65789 6.44737C5.65789 6.65675 5.74107 6.85756 5.88913 7.00561C6.03718 7.15367 6.23799 7.23684 6.44737 7.23684C6.65675 7.23684 6.85756 7.15367 7.00561 7.00561C7.15367 6.85756 7.23684 6.65675 7.23684 6.44737C7.23684 6.23799 7.15367 6.03718 7.00561 5.88913C6.85756 5.74107 6.65675 5.65789 6.44737 5.65789ZM8.55263 11.9737C8.48284 11.9737 8.4159 12.0014 8.36655 12.0508C8.3172 12.1001 8.28947 12.167 8.28947 12.2368C8.28947 12.3066 8.3172 12.3736 8.36655 12.4229C8.4159 12.4723 8.48284 12.5 8.55263 12.5C8.62243 12.5 8.68936 12.4723 8.73871 12.4229C8.78806 12.3736 8.81579 12.3066 8.81579 12.2368C8.81579 12.167 8.78806 12.1001 8.73871 12.0508C8.68936 12.0014 8.62243 11.9737 8.55263 11.9737ZM8.55263 10.1316C8.41304 10.1316 8.27917 10.187 8.18047 10.2857C8.08177 10.3844 8.02632 10.5183 8.02632 10.6579C8.02632 10.7975 8.08177 10.9314 8.18047 11.0301C8.27917 11.1288 8.41304 11.1842 8.55263 11.1842C8.69222 11.1842 8.82609 11.1288 8.92479 11.0301C9.0235 10.9314 9.07895 10.7975 9.07895 10.6579C9.07895 10.5183 9.0235 10.3844 8.92479 10.2857C8.82609 10.187 8.69222 10.1316 8.55263 10.1316ZM12.2368 8.28947C12.167 8.28947 12.1001 8.3172 12.0508 8.36655C12.0014 8.4159 11.9737 8.48284 11.9737 8.55263C11.9737 8.62243 12.0014 8.68936 12.0508 8.73871C12.1001 8.78806 12.167 8.81579 12.2368 8.81579C12.3066 8.81579 12.3736 8.78806 12.4229 8.73871C12.4723 8.68936 12.5 8.62243 12.5 8.55263C12.5 8.48284 12.4723 8.4159 12.4229 8.36655C12.3736 8.3172 12.3066 8.28947 12.2368 8.28947ZM10.6579 3.81579C10.5183 3.81579 10.3844 3.87124 10.2857 3.96994C10.187 4.06865 10.1316 4.20252 10.1316 4.34211C10.1316 4.48169 10.187 4.61556 10.2857 4.71427C10.3844 4.81297 10.5183 4.86842 10.6579 4.86842C10.7975 4.86842 10.9314 4.81297 11.0301 4.71427C11.1288 4.61556 11.1842 4.48169 11.1842 4.34211C11.1842 4.20252 11.1288 4.06865 11.0301 3.96994C10.9314 3.87124 10.7975 3.81579 10.6579 3.81579ZM10.6579 5.92105C10.5183 5.92105 10.3844 5.9765 10.2857 6.07521C10.187 6.17391 10.1316 6.30778 10.1316 6.44737C10.1316 6.58696 10.187 6.72083 10.2857 6.81953C10.3844 6.91823 10.5183 6.97368 10.6579 6.97368C10.7975 6.97368 10.9314 6.91823 11.0301 6.81953C11.1288 6.72083 11.1842 6.58696 11.1842 6.44737C11.1842 6.30778 11.1288 6.17391 11.0301 6.07521C10.9314 5.9765 10.7975 5.92105 10.6579 5.92105ZM10.6579 10.1316C10.5183 10.1316 10.3844 10.187 10.2857 10.2857C10.187 10.3844 10.1316 10.5183 10.1316 10.6579C10.1316 10.7975 10.187 10.9314 10.2857 11.0301C10.3844 11.1288 10.5183 11.1842 10.6579 11.1842C10.7975 11.1842 10.9314 11.1288 11.0301 11.0301C11.1288 10.9314 11.1842 10.7975 11.1842 10.6579C11.1842 10.5183 11.1288 10.3844 11.0301 10.2857C10.9314 10.187 10.7975 10.1316 10.6579 10.1316ZM10.6579 8.02632C10.5183 8.02632 10.3844 8.08177 10.2857 8.18047C10.187 8.27917 10.1316 8.41304 10.1316 8.55263C10.1316 8.69222 10.187 8.82609 10.2857 8.92479C10.3844 9.0235 10.5183 9.07895 10.6579 9.07895C10.7975 9.07895 10.9314 9.0235 11.0301 8.92479C11.1288 8.82609 11.1842 8.69222 11.1842 8.55263C11.1842 8.41304 11.1288 8.27917 11.0301 8.18047C10.9314 8.08177 10.7975 8.02632 10.6579 8.02632ZM6.44737 7.76316C6.23799 7.76316 6.03718 7.84633 5.88913 7.99439C5.74107 8.14244 5.65789 8.34325 5.65789 8.55263C5.65789 8.76201 5.74107 8.96282 5.88913 9.11087C6.03718 9.25893 6.23799 9.34211 6.44737 9.34211C6.65675 9.34211 6.85756 9.25893 7.00561 9.11087C7.15367 8.96282 7.23684 8.76201 7.23684 8.55263C7.23684 8.34325 7.15367 8.14244 7.00561 7.99439C6.85756 7.84633 6.65675 7.76316 6.44737 7.76316ZM6.44737 4.86842C6.58696 4.86842 6.72083 4.81297 6.81953 4.71427C6.91823 4.61556 6.97368 4.48169 6.97368 4.34211C6.97368 4.20252 6.91823 4.06865 6.81953 3.96994C6.72083 3.87124 6.58696 3.81579 6.44737 3.81579C6.30778 3.81579 6.17391 3.87124 6.07521 3.96994C5.9765 4.06865 5.92105 4.20252 5.92105 4.34211C5.92105 4.48169 5.9765 4.61556 6.07521 4.71427C6.17391 4.81297 6.30778 4.86842 6.44737 4.86842ZM6.44737 3.02632C6.51716 3.02632 6.5841 2.99859 6.63345 2.94924C6.6828 2.89989 6.71053 2.83295 6.71053 2.76316C6.71053 2.69336 6.6828 2.62643 6.63345 2.57708C6.5841 2.52773 6.51716 2.5 6.44737 2.5C6.37757 2.5 6.31064 2.52773 6.26129 2.57708C6.21194 2.62643 6.18421 2.69336 6.18421 2.76316C6.18421 2.83295 6.21194 2.89989 6.26129 2.94924C6.31064 2.99859 6.37757 3.02632 6.44737 3.02632ZM6.44737 11.9737C6.37757 11.9737 6.31064 12.0014 6.26129 12.0508C6.21194 12.1001 6.18421 12.167 6.18421 12.2368C6.18421 12.3066 6.21194 12.3736 6.26129 12.4229C6.31064 12.4723 6.37757 12.5 6.44737 12.5C6.51716 12.5 6.5841 12.4723 6.63345 12.4229C6.6828 12.3736 6.71053 12.3066 6.71053 12.2368C6.71053 12.167 6.6828 12.1001 6.63345 12.0508C6.5841 12.0014 6.51716 11.9737 6.44737 11.9737ZM2.76316 8.28947C2.69336 8.28947 2.62643 8.3172 2.57708 8.36655C2.52773 8.4159 2.5 8.48284 2.5 8.55263C2.5 8.62243 2.52773 8.68936 2.57708 8.73871C2.62643 8.78806 2.69336 8.81579 2.76316 8.81579C2.83295 8.81579 2.89989 8.78806 2.94924 8.73871C2.99859 8.68936 3.02632 8.62243 3.02632 8.55263C3.02632 8.48284 2.99859 8.4159 2.94924 8.36655C2.89989 8.3172 2.83295 8.28947 2.76316 8.28947ZM8.55263 3.02632C8.62243 3.02632 8.68936 2.99859 8.73871 2.94924C8.78806 2.89989 8.81579 2.83295 8.81579 2.76316C8.81579 2.69336 8.78806 2.62643 8.73871 2.57708C8.68936 2.52773 8.62243 2.5 8.55263 2.5C8.48284 2.5 8.4159 2.52773 8.36655 2.57708C8.3172 2.62643 8.28947 2.69336 8.28947 2.76316C8.28947 2.83295 8.3172 2.89989 8.36655 2.94924C8.4159 2.99859 8.48284 3.02632 8.55263 3.02632ZM8.55263 4.86842C8.69222 4.86842 8.82609 4.81297 8.92479 4.71427C9.0235 4.61556 9.07895 4.48169 9.07895 4.34211C9.07895 4.20252 9.0235 4.06865 8.92479 3.96994C8.82609 3.87124 8.69222 3.81579 8.55263 3.81579C8.41304 3.81579 8.27917 3.87124 8.18047 3.96994C8.08177 4.06865 8.02632 4.20252 8.02632 4.34211C8.02632 4.48169 8.08177 4.61556 8.18047 4.71427C8.27917 4.81297 8.41304 4.86842 8.55263 4.86842ZM12.2368 6.71053C12.3066 6.71053 12.3736 6.6828 12.4229 6.63345C12.4723 6.5841 12.5 6.51716 12.5 6.44737C12.5 6.37757 12.4723 6.31064 12.4229 6.26129C12.3736 6.21194 12.3066 6.18421 12.2368 6.18421C12.167 6.18421 12.1001 6.21194 12.0508 6.26129C12.0014 6.31064 11.9737 6.37757 11.9737 6.44737C11.9737 6.51716 12.0014 6.5841 12.0508 6.63345C12.1001 6.6828 12.167 6.71053 12.2368 6.71053ZM4.34211 3.81579C4.20252 3.81579 4.06865 3.87124 3.96994 3.96994C3.87124 4.06865 3.81579 4.20252 3.81579 4.34211C3.81579 4.48169 3.87124 4.61556 3.96994 4.71427C4.06865 4.81297 4.20252 4.86842 4.34211 4.86842C4.48169 4.86842 4.61556 4.81297 4.71427 4.71427C4.81297 4.61556 4.86842 4.48169 4.86842 4.34211C4.86842 4.20252 4.81297 4.06865 4.71427 3.96994C4.61556 3.87124 4.48169 3.81579 4.34211 3.81579ZM2.76316 6.18421C2.69336 6.18421 2.62643 6.21194 2.57708 6.26129C2.52773 6.31064 2.5 6.37757 2.5 6.44737C2.5 6.51716 2.52773 6.5841 2.57708 6.63345C2.62643 6.6828 2.69336 6.71053 2.76316 6.71053C2.83295 6.71053 2.89989 6.6828 2.94924 6.63345C2.99859 6.5841 3.02632 6.51716 3.02632 6.44737C3.02632 6.37757 2.99859 6.31064 2.94924 6.26129C2.89989 6.21194 2.83295 6.18421 2.76316 6.18421ZM4.34211 5.92105C4.20252 5.92105 4.06865 5.9765 3.96994 6.07521C3.87124 6.17391 3.81579 6.30778 3.81579 6.44737C3.81579 6.58696 3.87124 6.72083 3.96994 6.81953C4.06865 6.91823 4.20252 6.97368 4.34211 6.97368C4.48169 6.97368 4.61556 6.91823 4.71427 6.81953C4.81297 6.72083 4.86842 6.58696 4.86842 6.44737C4.86842 6.30778 4.81297 6.17391 4.71427 6.07521C4.61556 5.9765 4.48169 5.92105 4.34211 5.92105ZM4.34211 10.1316C4.20252 10.1316 4.06865 10.187 3.96994 10.2857C3.87124 10.3844 3.81579 10.5183 3.81579 10.6579C3.81579 10.7975 3.87124 10.9314 3.96994 11.0301C4.06865 11.1288 4.20252 11.1842 4.34211 11.1842C4.48169 11.1842 4.61556 11.1288 4.71427 11.0301C4.81297 10.9314 4.86842 10.7975 4.86842 10.6579C4.86842 10.5183 4.81297 10.3844 4.71427 10.2857C4.61556 10.187 4.48169 10.1316 4.34211 10.1316ZM4.34211 8.02632C4.20252 8.02632 4.06865 8.08177 3.96994 8.18047C3.87124 8.27917 3.81579 8.41304 3.81579 8.55263C3.81579 8.69222 3.87124 8.82609 3.96994 8.92479C4.06865 9.0235 4.20252 9.07895 4.34211 9.07895C4.48169 9.07895 4.61556 9.0235 4.71427 8.92479C4.81297 8.82609 4.86842 8.69222 4.86842 8.55263C4.86842 8.41304 4.81297 8.27917 4.71427 8.18047C4.61556 8.08177 4.48169 8.02632 4.34211 8.02632Z" fill="#00ADB5"/>
</svg>
