<svg width="26" height="26" viewBox="0 0 26 26" fill="none" xmlns="http://www.w3.org/2000/svg">
<rect width="26" height="26" rx="13" fill="#00ADB5"/>
<path d="M17.5833 8H10.9167C10.8062 8 10.7002 8.0439 10.622 8.12204C10.5439 8.20018 10.5 8.30616 10.5 8.41667V10.5H8.41667C8.30616 10.5 8.20018 10.5439 8.12204 10.622C8.0439 10.7002 8 10.8062 8 10.9167V17.5833C8 17.6938 8.0439 17.7998 8.12204 17.878C8.20018 17.9561 8.30616 18 8.41667 18H15.0833C15.1938 18 15.2998 17.9561 15.378 17.878C15.4561 17.7998 15.5 17.6938 15.5 17.5833V15.5H17.5833C17.6938 15.5 17.7998 15.4561 17.878 15.378C17.9561 15.2998 18 15.1938 18 15.0833V8.41667C18 8.30616 17.9561 8.20018 17.878 8.12204C17.7998 8.0439 17.6938 8 17.5833 8ZM17.1667 14.6667H15.5V10.9167C15.5 10.8062 15.4561 10.7002 15.378 10.622C15.2998 10.5439 15.1938 10.5 15.0833 10.5H11.3333V8.83333H17.1667V14.6667Z" fill="#EEEEEE"/>
</svg>
