<svg width="15" height="15" viewBox="0 0 15 15" fill="none" xmlns="http://www.w3.org/2000/svg">
<path d="M2.5 2.5H10.8333V10.8333H2.5V2.5ZM11.3889 11.3889H12.5V12.5H11.3889V11.3889ZM11.3889 9.72222H12.5V10.8333H11.3889V9.72222ZM11.3889 8.05556H12.5V9.16667H11.3889V8.05556ZM11.3889 6.38889H12.5V7.5H11.3889V6.38889ZM11.3889 4.72222H12.5V5.83333H11.3889V4.72222ZM9.72222 11.3889H10.8333V12.5H9.72222V11.3889ZM8.05556 11.3889H9.16667V12.5H8.05556V11.3889ZM6.38889 11.3889H7.5V12.5H6.38889V11.3889ZM4.72222 11.3889H5.83333V12.5H4.72222V11.3889Z" fill="#00ADB5"/>
</svg>
